<?xml version="1.0" encoding="utf-8"?>
<!-- Generator: Adobe Illustrator 24.0.2, SVG Export Plug-In . SVG Version: 6.00 Build 0)  -->
<svg version="1.1" id="Layer_1" xmlns="http://www.w3.org/2000/svg" xmlns:xlink="http://www.w3.org/1999/xlink" x="0px" y="0px"
	 viewBox="0 0 30 30" style="enable-background:new 0 0 30 30;" xml:space="preserve">
<style type="text/css">
	.st0{fill:#FF6700;}
</style>
<path class="st0" d="M13.1,6.8c0-0.1,0-0.2,0-0.3c0-1.7,0-3.4,0-5c0-0.2,0-0.4,0-0.6c0-0.4,0.2-0.6,0.5-0.6c0.6,0,1.2,0,1.8,0
	c0.2,0,0.3,0,0.5,0c0.4,0,0.6,0.2,0.7,0.6c0,0.3,0,0.6,0,0.8c0,1.7,0,3.3,0,5c0,0,0,0.1,0,0.2c0.4,0,0.8,0,1.1,0c0.1,0,0.2,0,0.2,0
	c0.5,0.1,0.7,0.5,0.3,1c-0.3,0.4-0.6,0.8-0.9,1.1c-0.7,0.8-1.3,1.6-2,2.3c-0.4,0.5-0.8,0.5-1.2,0c-0.9-1.1-1.9-2.2-2.8-3.3l-0.1-0.1
	c-0.4-0.5-0.1-1,0.5-1c0.2,0,0.4,0,0.6,0C12.7,6.8,12.9,6.8,13.1,6.8z"/>
<path class="st0" d="M13.1,23.2c-0.4,0-0.8,0-1.2,0c-0.1,0-0.2,0-0.2,0c-0.5-0.1-0.6-0.6-0.3-1c0.4-0.5,0.8-1,1.2-1.5
	c0.5-0.6,1.1-1.3,1.7-1.9c0.4-0.4,0.9-0.4,1.3,0c0.9,1,1.7,2,2.5,2.9c0.1,0.1,0.2,0.3,0.3,0.4c0.3,0.5,0.1,0.9-0.4,1
	c-0.3,0-0.5,0-0.8,0c-0.2,0-0.3,0-0.5,0c0,0.1,0,0.2,0,0.3c0,1.8,0,3.5,0,5.3c0,0.2,0,0.3,0,0.5c-0.1,0.4-0.2,0.5-0.6,0.5
	c-0.8,0-1.6,0-2.4,0c-0.4,0-0.5-0.2-0.6-0.6c0-0.2,0-0.4,0-0.6c0-1.7,0-3.4,0-5.1C13.1,23.4,13.1,23.3,13.1,23.2z"/>
<path class="st0" d="M23.2,12.8c0.1,0,0.2,0,0.3,0c1.7,0,3.4,0,5.1,0c0.2,0,0.4,0,0.6,0c0.4,0,0.6,0.2,0.6,0.6c0,0.8,0,1.5,0,2.3
	c0,0.5-0.2,0.6-0.7,0.7c-0.3,0-0.6,0-0.9,0c-1.6,0-3.2,0-4.7,0c-0.1,0-0.1,0-0.2,0c0,0.1,0,0.2,0,0.2c0,0.3,0,0.6,0,1
	c0,0.3-0.1,0.5-0.4,0.7c-0.3,0.1-0.5,0-0.7-0.2c-0.8-0.7-1.6-1.3-2.4-2c-0.3-0.3-0.7-0.6-1-0.9c-0.3-0.3-0.3-0.9,0-1.1
	c1.1-1,2.3-2,3.4-2.9c0.2-0.2,0.4-0.3,0.7-0.2c0.3,0.1,0.4,0.4,0.4,0.6C23.2,11.9,23.2,12.3,23.2,12.8z"/>
<path class="st0" d="M6.7,16.3c-0.1,0-0.2,0-0.3,0c-1.8,0-3.5,0-5.3,0c-0.1,0-0.2,0-0.3,0c-0.5-0.1-0.6-0.2-0.7-0.7c0-0.7,0-1.3,0-2
	c0-0.1,0-0.3,0.1-0.4c0.1-0.2,0.2-0.4,0.4-0.4c0.4,0,0.9,0,1.3,0c1.6,0,3.1,0,4.7,0c0,0,0,0,0.1,0c0-0.3,0-0.6,0-1
	c0-0.2,0-0.3,0.1-0.5c0.1-0.4,0.5-0.5,0.9-0.3c0.2,0.1,0.4,0.3,0.6,0.4c1,0.9,2,1.7,3,2.6c0.4,0.4,0.4,0.8,0,1.1
	c-1.2,1-2.3,1.9-3.4,2.8c-0.2,0.2-0.5,0.3-0.8,0.2c-0.1,0-0.3-0.2-0.3-0.3c-0.2-0.4-0.2-0.9-0.1-1.3C6.7,16.5,6.7,16.4,6.7,16.3z"/>
<path class="st0" d="M14.9,13.4c0.9,0,1.6,0.8,1.6,1.6c0,0.9-0.7,1.6-1.6,1.6c-0.9,0-1.6-0.7-1.6-1.6C13.3,14.1,14,13.4,14.9,13.4z"
	/>
</svg>
