<svg xmlns="http://www.w3.org/2000/svg" id="Layer_1" x="0" y="0" viewBox="0 0 1920 1080" style="enable-background:new 0 0 1920 1080" xml:space="preserve">  <style>    .st0{fill:#ff6700}  </style>  <path class="st0" d="M335.8 712.3h165.9v72.8H335.8v-72.8zm234.1-339.9c-8.9 9-19.5 13.5-31.8 13.5s-22.9-4.5-31.8-13.5c-8.9-9-13.3-19.6-13.3-32 0-12.4 4.4-23.1 13.3-32 8.9-9 19.5-13.4 31.8-13.4s22.9 4.5 31.8 13.4c8.9 9 13.3 19.7 13.3 32 .1 12.3-4.4 23-13.3 32zm-68.2 54.5h72.8v254.3h-72.8V426.9zm146.6 254.3V299.7h72.8v381.5h-72.8zM749.8 581c-10-13.7-15.1-24.6-15.1-32.8 0-5.5.9-10.2 2.7-13.9 1.8-3.7 6.1-9.9 12.9-18.3l73.8-89h87.4l-89.8 106.6c-4.2 5.2-6.3 9.3-6.3 12.2 0 2.3 2.1 6 6.3 11.2l95.6 124.2H824L749.8 581zm275.9-208.6c-8.9 9-19.5 13.5-31.8 13.5s-22.9-4.5-31.8-13.5c-8.9-9-13.3-19.6-13.3-32 0-12.4 4.4-23.1 13.3-32 8.9-9 19.5-13.4 31.8-13.4s22.9 4.5 31.8 13.4c8.9 9 13.3 19.7 13.3 32s-4.4 23-13.3 32zm-68.2 54.5h72.8v254.3h-72.8V426.9zm139.3 115.9c0-37.5 11.5-67 34.5-88.5s52.7-32.3 89.3-32.3c36.6 0 66.3 10.8 89.3 32.3 23 21.5 34.5 51 34.5 88.5v138.4h-72.8V544.3c0-16-4.8-28.4-14.3-37.4s-21.8-13.5-36.6-13.5c-14.9 0-27.1 4.5-36.6 13.5s-14.3 21.4-14.3 37.4v136.9H1097V542.8zm415.5 38.2c-10-13.7-15.1-24.6-15.1-32.8 0-5.5.9-10.2 2.7-13.9 1.8-3.7 6.1-9.9 12.9-18.3l73.8-89h87.4l-89.8 106.6c-4.2 5.2-6.3 9.3-6.3 12.2 0 2.3 2.1 6 6.3 11.2l95.6 124.2h-93.2L1512.3 581z"></path>  <path d="M1853.9 527.2c10 13.7 15.1 24.6 15.1 32.8 0 5.5-.9 10.2-2.7 13.9-1.8 3.7-6.1 9.9-12.9 18.3l-73.8 89h-87.4l89.8-106.6c4.2-5.2 6.3-9.3 6.3-12.2 0-2.3-2.1-6-6.3-11.2L1686.4 427h93.2l74.3 100.2z" style="fill:#0d3b66"></path>  <path class="st0" d="M396.5 601.8c32.6-44.4 43.3-94.6 32.5-148.4-17.2-85.9-90.8-149.5-175.7-153.1-89.9-3.9-168.6 50.6-193.7 134.1-25.8 85.7 8.6 175.2 85.7 220.8 45.2 26.7 93.4 32.2 146.7 19.7-14.3-21.3-26.8-41-40.6-59.7-3.7-5-11.4-9.4-17.6-10-48.9-4.4-88.6-36.3-102.3-83.4-13.2-45.6 3.8-95 42.5-123.5 39.2-28.8 91.1-29.9 131.8-2.8 48.9 32.6 65.9 101.8 35.6 148.7-12.8 23.7-34 42.3-59.5 51.9 18 26.7 35.8 53.2 53.7 79.7 1.8 2.6 5.9 5.1 9 5.1 28 .4 56.1.2 87.3.2-13.2-19.5-23.6-36.3-35.4-52-7.2-9.8-8-16.4 0-27.3zm1002.7-302.1h72.8v381.5h-72.8z"></path></svg>