<?xml version="1.0" encoding="utf-8"?>
<!-- Generator: Adobe Illustrator 24.0.2, SVG Export Plug-In . SVG Version: 6.00 Build 0)  -->
<svg version="1.1" id="Layer_1" xmlns="http://www.w3.org/2000/svg" xmlns:xlink="http://www.w3.org/1999/xlink" x="0px" y="0px"
	 viewBox="0 0 30 30" style="enable-background:new 0 0 30 30;" xml:space="preserve">
<style type="text/css">
	.st0{fill:#F26722;}
</style>
<path class="st0" d="M15.5,10.9c-2,0-4,0-6,0c-0.6,0-0.8,0.2-0.8,0.8c0,0.9,0,1.8,0,2.7c0,0.7-0.3,0.9-0.9,0.5c-2.4-1.5-4.7-3-7-4.5
	c-0.5-0.3-0.5-0.7,0-1c2.3-1.5,4.7-3,7-4.5c0.6-0.4,0.9-0.2,0.9,0.6c0,0.9,0,1.8,0,2.7c0,0.6,0.2,0.8,0.8,0.8c3.9,0,7.8,0,11.8,0
	c4.4,0,8.1,3.4,8.4,7.7c0.3,4.5-2.7,8.4-7.1,9c-1.4,0.2-2.9,0.1-4.4,0.1c-1,0-2,0-3,0c-0.8,0-1.2-0.4-1.2-1c0-0.6,0.4-1,1.2-1
	c2.1,0,4.2,0.1,6.3,0c3.7-0.2,6.4-3,6.3-6.6c-0.1-3.6-2.9-6.3-6.6-6.3C19.2,10.8,17.4,10.9,15.5,10.9z"/>
</svg>
